# xmcd
#
# Track frame offsets:
#	150
#	16757
#	33150
#	50025
#	73350
#	89445
#	106960
#	122075
#	140650
#	156792
#	173407
#	190945
#	206150
#	220690
#	239625
#	254567
#	274782
#	296167
#
# Disc length: 4003 seconds
#
# Revision: 2
# Processed by: cddbd v1.5.2PL0 Copyright (c) Steve Scherf et al.
# Submitted via: EZCDDA 4.3.2
#
DISCID=160fa112
DTITLE=Bonanza Banzai - The compilation (1993)
DYEAR=1900
DGENRE=
TTITLE0=C'mon start the banzai
TTITLE1=Colours
TTITLE2=To see me
TTITLE3=Ladies from that house (live)
TTITLE4=Coming around
TTITLE5=Nem ér semmit a dal
TTITLE6=A jel
TTITLE7=A Megvalto
TTITLE8=Tanc
TTITLE9=Kicsi sziv
TTITLE10=Calypso
TTITLE11=Felelem I.
TTITLE12=Felelem II.
TTITLE13=Kihalt minden
TTITLE14=Nezz ram
TTITLE15=Szerelemisten
TTITLE16=Ne titkold
TTITLE17=Adjon Isten...
EXTD=
EXTT0=
EXTT1=
EXTT2=
EXTT3=
EXTT4=
EXTT5=
EXTT6=
EXTT7=
EXTT8=
EXTT9=
EXTT10=
EXTT11=
EXTT12=
EXTT13=
EXTT14=
EXTT15=
EXTT16=
EXTT17=
PLAYORDER=
